PathFileType	4	(X/Y/Z)	D:\luciana\vassoio.trc
DataRate	CameraRate	NumFrames	NumMarkers	Units	OrigDataRate	OrigDataStartFrame	OrigNumFrames
250.00	250.00	17	20	mm	250.00	1	2051
Frame#	Time	pelvisR			Trunk1			Trunk2			Trunk3			C7			shoulder			upperArm1			upperArm2			upperArm3			elbow			forearm1			forearm2			forearm3			wrist1			wrist2			wrist3			Object1			Hand			Object2			Object3			
		X1	Y1	Z1	X2	Y2	Z2	X3	Y3	Z3	X4	Y4	Z4	X5	Y5	Z5	X6	Y6	Z6	X7	Y7	Z7	X8	Y8	Z8	X9	Y9	Z9	X10	Y10	Z10	X11	Y11	Z11	X12	Y12	Z12	X13	Y13	Z13	X14	Y14	Z14	X15	Y15	Z15	X16	Y16	Z16	X17	Y17	Z17	X18	Y18	Z18	X19	Y19	Z19	X20	Y20	Z20	

0	0.000000	1707.185507	666.423023	733.026385	1482.969046	868.414223	637.589753	1544.888496	815.127254	633.180618	1455.111265	777.181447	632.634699	1548.331499	1131.427646	816.117287	1721.995234	1054.580808	761.347175	1797.610402	878.943563	852.845550	1847.087264	889.262915	797.678769	1796.232820	889.230490	729.390383	1829.448223	754.356384	771.850705	1873.623729	699.247897	717.551708	1819.075346	658.926189	762.792885	1830.358028	749.978900	682.461023	1847.283959	671.224594	575.294435	1830.759883	603.036165	612.727284	1782.013059	708.044052	572.879076	1558.637977	578.730345	482.105106	1826.487422	602.238178	505.530834	1639.260054	551.938951	395.393372	1495.956779	552.402675	395.126045	
1	0.004000	1707.179546	666.427135	733.028173	1482.986331	868.408024	637.564778	1544.873953	815.124750	633.184314	1455.082655	777.166247	632.650852	1548.317552	1131.425619	816.130996	1721.999407	1054.589510	761.358738	1797.611237	878.936946	852.854133	1847.070456	889.254570	797.673941	1796.219349	889.245093	729.370952	1829.445601	754.350901	771.854937	1873.638868	699.257016	717.578053	1819.062233	658.922553	762.794375	1830.345392	749.975085	682.462692	1847.290874	671.235681	575.280786	1830.764890	603.050470	612.753987	1782.023430	708.057761	572.885334	1558.613539	578.728318	482.102156	1826.481342	602.249026	505.526125	1639.312029	551.956296	395.377249	1495.910883	552.402020	395.120144	
2	0.008000	1707.176208	666.432023	733.023942	1482.989073	868.397295	637.550235	1544.865608	815.110564	633.190751	1455.086350	777.164221	632.655561	1548.318505	1131.427288	816.119015	1721.994638	1054.583073	761.365056	1797.609806	878.936172	852.860153	1847.064137	889.252186	797.667682	1796.214104	889.247537	729.381084	1829.437256	754.350543	771.852553	1873.628736	699.258804	717.577815	1819.059491	658.925414	762.798011	1830.346704	749.976575	682.464302	1847.291470	671.236753	575.276971	1830.768347	603.041708	612.763226	1782.015204	708.053172	572.886229	1558.606744	578.724563	482.110620	1826.461434	602.259815	505.501449	1639.320254	551.959574	395.384312	1495.932579	552.389681	395.120442	
3	0.012000	1707.181573	666.431785	733.033776	1482.993603	868.358970	637.553334	1544.862390	815.096140	633.203626	1455.081105	777.151048	632.662416	1548.306704	1131.413698	816.120982	1722.001076	1054.590225	761.366248	1797.601104	878.939271	852.863371	1847.069144	889.257073	797.669768	1796.209574	889.244080	729.392946	1829.442024	754.364669	771.863699	1873.625159	699.271441	717.564344	1819.051266	658.920288	762.806118	1830.344558	749.974549	682.475805	1847.293377	671.241939	575.287402	1830.757737	603.034735	612.779379	1782.012939	708.046317	572.893381	1558.606744	578.717470	482.114464	1826.465845	602.270961	505.498886	1639.346361	551.980257	395.394772	1495.946407	552.385747	395.112276	
4	0.016000	1707.191229	666.435301	733.037889	1482.981205	868.337810	637.548566	1544.858098	815.083742	633.208871	1455.088139	777.136028	632.675231	1548.303604	1131.402969	816.122890	1722.004294	1054.600000	761.380196	1797.601700	878.942132	852.869153	1847.059608	889.252901	797.669411	1796.213627	889.245749	729.403555	1829.449058	754.360735	771.865249	1873.617649	699.264586	717.565775	1819.046021	658.925593	762.803018	1830.342293	749.978125	682.478964	1847.287416	671.236753	575.295210	1830.758214	603.036284	612.779140	1782.008410	708.047509	572.900772	1558.606863	578.710437	482.107282	1826.464534	602.286935	505.499959	1639.297485	551.972508	395.391345	1495.934486	552.372456	395.120353	
5	0.020000	1707.185268	666.429877	733.035564	1482.973099	868.322551	637.536108	1544.853687	815.078139	633.218348	1455.097795	777.129054	632.690847	1548.300028	1131.407738	816.120028	1722.002745	1054.596663	761.379242	1797.625065	878.945470	852.879584	1847.052097	889.246762	797.674894	1796.214104	889.246345	729.411840	1829.444170	754.345894	771.869361	1873.616099	699.258983	717.583179	1819.038868	658.923626	762.806535	1830.332041	749.982953	682.482541	1847.284079	671.235919	575.295806	1830.755949	603.043139	612.778425	1781.997442	708.042502	572.901487	1558.591962	578.701973	482.108712	1826.469064	602.294087	505.505800	1639.339089	551.982522	395.392597	1495.904088	552.352667	395.118862	
6	0.024000	1707.181454	666.426480	733.031690	1482.949972	868.300259	637.548566	1544.851303	815.065026	633.234978	1455.092192	777.118981	632.700443	1548.294067	1131.413579	816.120684	1721.996546	1054.581881	761.375666	1797.611356	878.943920	852.875233	1847.051978	889.247954	797.683477	1796.203375	889.245272	729.409099	1829.434872	754.352450	771.876335	1873.608828	699.258566	717.588663	1819.049478	658.922851	762.818694	1830.325365	749.982238	682.488918	1847.278714	671.235025	575.296164	1830.745101	603.037834	612.768471	1781.998158	708.046556	572.910666	1558.591008	578.693032	482.119083	1826.477647	602.279007	505.514324	1639.375925	552.006721	395.392060	1495.870471	552.347124	395.118892	
7	0.028000	1707.185507	666.436613	733.039498	1482.955575	868.303955	637.549341	1544.857025	815.054297	633.239329	1455.092669	777.110100	632.708728	1548.285723	1131.422162	816.122472	1721.990108	1054.568172	761.370003	1797.600508	878.932416	852.884531	1847.042799	889.250875	797.691345	1796.193242	889.231920	729.409873	1829.425097	754.350781	771.877527	1873.601079	699.262917	717.587888	1819.061518	658.925176	762.832165	1830.323100	749.975860	682.488441	1847.278953	671.241879	575.301349	1830.746889	603.061914	612.762332	1782.001853	708.056331	572.912574	1558.595181	578.699231	482.128143	1826.473594	602.281213	505.522966	1639.380693	552.005649	395.386189	1495.883942	552.360117	395.119309	
8	0.032000	1707.182050	666.446984	733.042359	1482.944727	868.327737	637.558460	1544.863582	815.059006	633.246779	1455.105066	777.107596	632.715642	1548.283339	1131.420612	816.123128	1721.986175	1054.586768	761.370778	1797.591448	878.940463	852.893054	1847.032309	889.249682	797.692001	1796.199203	889.232874	729.420006	1829.418182	754.347742	771.881342	1873.599172	699.273586	717.592657	1819.053054	658.918977	762.833834	1830.325603	749.989033	682.497859	1847.269416	671.249747	575.304091	1830.746174	603.064060	612.749398	1782.004833	708.058894	572.912931	1558.599114	578.709245	482.129157	1826.462746	602.283537	505.516529	1639.287114	551.966548	395.389915	1495.926976	552.373767	395.109564	
9	0.036000	1707.189679	666.445136	733.051062	1482.944489	868.328094	637.562335	1544.860601	815.076590	633.249164	1455.115914	777.118802	632.727265	1548.280954	1131.422758	816.123724	1721.987367	1054.592490	761.392236	1797.578096	878.948033	852.891445	1847.031355	889.255822	797.705054	1796.197772	889.244437	729.418576	1829.402328	754.350901	771.885335	1873.595476	699.266732	717.598081	1819.038391	658.924282	762.832761	1830.318809	749.991596	682.507634	1847.264051	671.256483	575.313568	1830.738544	603.049278	612.749815	1782.001734	708.064616	572.919190	1558.604240	578.708947	482.128829	1826.454639	602.286816	505.528092	1639.286280	551.969051	395.404696	1495.927334	552.383900	395.102948	
10	0.040000	1707.194448	666.442871	733.060002	1482.960105	868.341088	637.553632	1544.867754	815.084994	633.258283	1455.105662	777.116179	632.726431	1548.279643	1131.431818	816.125274	1721.979618	1054.595828	761.395454	1797.574282	878.942966	852.895021	1847.025275	889.253855	797.717929	1796.194911	889.252067	729.427397	1829.388380	754.346490	771.881878	1873.587251	699.262619	717.614591	1819.045424	658.922493	762.829661	1830.317616	749.994159	682.515740	1847.272635	671.258092	575.318992	1830.753684	603.049219	612.780750	1782.002449	708.076835	572.924078	1558.614612	578.717530	482.130080	1826.465011	602.286518	505.540192	1639.343500	551.982403	395.412326	1495.929241	552.391291	395.113647	
11	0.044000	1707.195640	666.442454	733.064532	1482.972145	868.341327	637.543201	1544.869304	815.072238	633.270204	1455.096841	777.115583	632.731676	1548.280120	1131.434441	816.112161	1721.965194	1054.588556	761.390686	1797.569633	878.940940	852.909207	1847.016573	889.250398	797.719896	1796.201706	889.250040	729.440808	1829.378366	754.337251	771.883368	1873.591542	699.269593	717.631102	1819.034934	658.918738	762.838840	1830.311060	749.992251	682.517827	1847.279310	671.266675	575.320065	1830.749154	603.080392	612.793446	1782.003760	708.081841	572.929442	1558.605909	578.728795	482.130229	1826.467872	602.281332	505.545378	1639.347434	551.988125	395.420730	1495.936632	552.383363	395.138681	
12	0.048000	1707.185626	666.436434	733.057201	1482.952118	868.321419	637.549996	1544.877410	815.071702	633.276403	1455.109119	777.114630	632.744551	1548.275471	1131.433487	816.117644	1721.961021	1054.600477	761.402130	1797.562361	878.943861	852.918327	1847.010493	889.254570	797.720432	1796.187162	889.248610	729.446948	1829.386473	754.346073	771.897316	1873.594522	699.280262	717.633843	1819.026470	658.925474	762.854815	1830.305457	749.991894	682.518840	1847.277522	671.266675	575.328350	1830.772161	603.079796	612.809241	1782.006264	708.079219	572.939634	1558.609486	578.726232	482.122838	1826.453924	602.278233	505.540013	1639.324546	551.986694	395.423502	1495.926499	552.384734	395.132005	
13	0.052000	1707.181692	666.440845	733.075202	1482.936621	868.306160	637.561202	1544.869423	815.063059	633.293629	1455.101013	777.096868	632.763863	1548.269391	1131.432652	816.125929	1721.950054	1054.591894	761.397839	1797.559500	878.943026	852.917552	1847.013116	889.257014	797.727585	1796.169400	889.237106	729.436278	1829.388738	754.347384	771.908998	1873.588085	699.276507	717.639983	1819.023848	658.916593	762.854934	1830.301881	749.991179	682.520747	1847.273827	671.263576	575.342417	1830.759883	603.055775	612.796068	1782.005787	708.077073	572.944760	1558.616400	578.724205	482.122242	1826.441169	602.271020	505.536735	1639.264584	551.956177	395.420343	1495.934725	552.395105	395.123214	
14	0.056000	1707.184434	666.444898	733.081698	1482.917666	868.306756	637.556672	1544.857979	815.051377	633.303583	1455.103040	777.090907	632.774830	1548.255682	1131.434083	816.114902	1721.950531	1054.571152	761.408806	1797.544837	878.935277	852.922440	1847.008705	889.247715	797.734678	1796.160460	889.237523	729.435205	1829.373956	754.342794	771.911025	1873.577356	699.272990	717.632174	1819.011211	658.912301	762.860775	1830.288172	749.980569	682.521582	1847.277641	671.266496	575.350225	1830.728412	603.059292	612.806916	1781.997204	708.075881	572.944045	1558.622599	578.728497	482.118249	1826.453090	602.276802	505.549550	1639.331460	551.975250	395.428777	1495.959401	552.386761	395.130813	
15	0.060000	1707.187653	666.446686	733.081937	1482.910275	868.298769	637.562513	1544.861317	815.050125	633.297384	1455.091238	777.080774	632.776797	1548.246145	1131.427050	816.113472	1721.947193	1054.575801	761.415303	1797.535181	878.938138	852.916718	1846.994758	889.248729	797.742486	1796.151400	889.232695	729.442239	1829.367399	754.333317	771.906018	1873.562098	699.261546	717.624485	1819.004893	658.923447	762.866676	1830.282331	749.969184	682.529747	1847.270966	671.262145	575.344324	1830.718756	603.045881	612.816393	1781.995773	708.073258	572.944224	1558.617592	578.734338	482.124090	1826.451778	602.270186	505.576432	1639.374733	551.997304	395.433128	1495.956659	552.370906	395.138621	
16	0.064000	1707.187176	666.453719	733.084142	1482.928038	868.286073	637.550712	1544.852853	815.038085	633.295417	1455.100298	777.064323	632.780731	1548.240423	1131.430626	816.107094	1721.937656	1054.581642	761.409461	1797.516704	878.936529	852.907181	1846.988201	889.247417	797.744751	1796.143532	889.228106	729.457796	1829.366684	754.337192	771.911621	1873.557091	699.265242	717.639208	1819.011211	658.922434	762.862086	1830.291510	749.975443	682.537317	1847.266316	671.254456	575.352430	1830.728292	603.053570	612.823486	1781.997204	708.068311	572.949529	1558.610439	578.725815	482.129306	1826.450825	602.282047	505.591333	1639.376521	551.988125	395.436525	1495.955229	552.386820	395.129114	
